<svg width="100" height="100" viewBox="0 0 100 100" fill="none" xmlns="http://www.w3.org/2000/svg">
<path d="M22.1495 100C18.2009 100 15 96.8065 15 92.8672V24.1328C15 20.1935 18.2009 17 22.1495 17H30.4363C34.3849 17 37.5858 20.1935 37.5858 24.1328V49.8014C37.5858 50.2185 37.9247 50.5566 38.3428 50.5566V50.5566C38.5822 50.5566 38.8074 50.4437 38.9502 50.2522L61.6022 19.8753C62.9513 18.0662 65.0783 17 67.3384 17H75.6699C81.5798 17 84.9377 23.7473 81.3654 28.4443L64.9359 50.0467C63.1434 52.4036 62.9953 55.62 64.5639 58.1309L83.9067 89.0945C86.8746 93.8456 83.4505 100 77.8391 100H67.7979C65.2846 100 62.9559 98.6834 61.6645 96.5323L50.1901 77.4197C47.729 73.3203 41.9002 72.9872 38.986 76.7794V76.7794C38.0779 77.9611 37.5858 79.4086 37.5858 80.8976V92.8672C37.5858 96.8065 34.3849 100 30.4363 100H22.1495Z" fill="white"/>
</svg>
