<svg viewBox="0 0 40 40" fill="none" xmlns="http://www.w3.org/2000/svg">
<path d="M30.75 28.5187C30.6515 28.5192 30.5538 28.5 30.4628 28.4622C30.3718 28.4244 30.2892 28.3688 30.22 28.2987C30.0796 28.1581 30.0007 27.9675 30.0007 27.7687C30.0007 27.57 30.0796 27.3793 30.22 27.2387L36.94 20.5187H0.75C0.551088 20.5187 0.360322 20.4397 0.21967 20.299C0.0790175 20.1584 0 19.9676 0 19.7687C0 19.5698 0.0790175 19.379 0.21967 19.2384C0.360322 19.0977 0.551088 19.0187 0.75 19.0187H36.94L30.22 12.2987C30.1463 12.23 30.0872 12.1472 30.0462 12.0552C30.0052 11.9632 29.9832 11.8639 29.9814 11.7632C29.9796 11.6625 29.9982 11.5625 30.0359 11.4691C30.0736 11.3757 30.1297 11.2909 30.201 11.2197C30.2722 11.1485 30.357 11.0923 30.4504 11.0546C30.5438 11.0169 30.6438 10.9983 30.7445 11.0001C30.8452 11.0019 30.9445 11.0239 31.0365 11.0649C31.1285 11.1059 31.2113 11.165 31.28 11.2387L39.28 19.2387C39.3512 19.3053 39.4059 19.3874 39.44 19.4787C39.4796 19.5703 39.5001 19.669 39.5001 19.7687C39.5001 19.8685 39.4796 19.9672 39.44 20.0587C39.4059 20.15 39.3512 20.2322 39.28 20.2987L31.28 28.2987C31.2108 28.3688 31.1282 28.4244 31.0372 28.4622C30.9462 28.5 30.8485 28.5192 30.75 28.5187Z" fill="black"/>
</svg>
