<svg viewBox="0 0 100 100" fill="none" xmlns="http://www.w3.org/2000/svg">
<path d="M0 18.7314C0 15.566 2.54384 13 5.68182 13H94.3182C97.4562 13 100 15.566 100 18.7314V80.2686C100 83.434 97.4562 86 94.3182 86H5.68182C2.54384 86 0 83.434 0 80.2686V18.7314Z" fill="white"/>
<path fill-rule="evenodd" clip-rule="evenodd" d="M4.03184 20.3165C4.1692 18.8757 5.85934 18.5292 6.95538 19.4577L38.5636 46.2357C39.0795 46.6727 39.3775 47.3189 39.3775 48.0002V63.539C39.3775 64.8093 40.3939 65.8391 41.6477 65.8391H44.279C45.5327 65.8391 46.5491 64.8093 46.5491 63.539V59.6793C46.5491 59.1991 46.7054 58.7324 46.9937 58.3514V58.3514C47.919 57.1285 49.7698 57.2359 50.5513 58.5578L54.1947 64.7209C54.6047 65.4145 55.3441 65.8391 56.1422 65.8391H59.3305C61.1123 65.8391 62.1995 63.8545 61.2571 62.3225L55.4073 52.8127C54.8085 51.8392 55.0092 50.5675 55.8777 49.8316L92.8394 18.5183C93.848 17.6638 95.404 17.8612 95.7544 19.1452C95.9145 19.7318 96 20.3499 96 20.9881V75.0998C96 78.9107 92.9509 82 89.1896 82H10.8104C7.04911 82 4 78.9107 4 75.0998V20.9881C4 20.7615 4.01078 20.5375 4.03184 20.3165Z" fill="black"/>
</svg>
